# xmcd CD database file
#
# Track frame offsets:
#	150
#	15710
#	32100
#	47633
#
# Disc length: 852 seconds
#
# Revision: 0
# Processed by: cddbd v1.5PL3 Copyright (c) Steve Scherf et al.
# Submitted via: CDex 1.50Beta7
#
DISCID=29035204
DTITLE=樋口智恵子 - オフサイド
DYEAR=2001
DGENRE=Anime
TTITLE0=大好きなシューズ
TTITLE1=Deary
TTITLE2=大好きなシューズ(カラオケ)
TTITLE3=Deary(カラオケ)
EXTD=YEAR: 2001
EXTT0=
EXTT1=
EXTT2=
EXTT3=
PLAYORDER=
